<svg viewBox="0 0 160 160" fill="none" xmlns="http://www.w3.org/2000/svg" role="img" aria-label="Caller and sender check">
  <circle cx="80" cy="80" r="72" fill="#eaf5ee"/>
  <path d="M56 44c4-4 11-4 14 1l7 12c2 4 1 8-2 11l-6 5c4 9 11 16 20 20l5-6c3-3 7-4 11-2l12 7c5 3 5 10 1 14l-8 8c-4 4-10 5-15 3-16-6-38-28-44-44-2-5-1-11 3-15l5-6Z" fill="#ffffff" stroke="#14532d" stroke-width="3"/>
  <circle cx="112" cy="52" r="24" fill="#2f9e5f"/>
  <path d="M104 52l6 6 12-13" stroke="#ffffff" stroke-width="5" stroke-linecap="round" stroke-linejoin="round"/>
  <path d="M40 108l5 5-5 5-5-5z" fill="#ce1126"/>
</svg>
