<svg xmlns="http://www.w3.org/2000/svg" viewBox="0 0 64 64" role="img" aria-label="Aman">
  <title>Aman</title>
  <defs>
    <linearGradient id="amanShield" x1="0.1" y1="0" x2="0.9" y2="1">
      <stop offset="0" stop-color="#2a8a51"/>
      <stop offset="1" stop-color="#0d4526"/>
    </linearGradient>
  </defs>
  <path d="M32 3.5 L57.5 12 V31.5 C57.5 46.8 47.2 57.4 32 61.5 C16.8 57.4 6.5 46.8 6.5 31.5 V12 Z"
        fill="url(#amanShield)"/>
  <path d="M28.8 52.5 C26.2 43 27 32.6 33.4 23.4" stroke="#f2fbf5" stroke-width="3.2"
        fill="none" stroke-linecap="round"/>
  <g fill="#8ed3a8">
    <path d="M28.4 46.6 C20.8 47 15.6 42.6 14.3 34.8 C22.1 34.6 27.4 39 28.4 46.6 Z"/>
    <path d="M30.2 35.2 C23.6 34.2 19.6 29.4 19.6 22.6 C26.3 23.8 30.1 28.5 30.2 35.2 Z"/>
  </g>
  <g fill="#d3edde">
    <path d="M30 46.8 C37.4 45.4 41.8 40.2 41.8 32.8 C34.7 34.6 30.4 39.5 30 46.8 Z"/>
    <path d="M32.1 34.6 C38.5 32.6 42 27.2 41.4 20.4 C35.1 22.8 31.9 27.9 32.1 34.6 Z"/>
  </g>
  <circle cx="34.6" cy="19.4" r="3.4" fill="#f4c95d"/>
</svg>
