<svg viewBox="0 0 160 160" fill="none" xmlns="http://www.w3.org/2000/svg" role="img" aria-label="Message analysis">
  <circle cx="80" cy="80" r="72" fill="#eaf5ee"/>
  <path d="M40 48h64a12 12 0 0 1 12 12v28a12 12 0 0 1-12 12H70l-18 16v-16h-12a12 12 0 0 1-12-12V60a12 12 0 0 1 12-12Z" fill="#ffffff" stroke="#14532d" stroke-width="3"/>
  <rect x="48" y="64" width="48" height="7" rx="3.5" fill="#d9ede0"/>
  <rect x="48" y="78" width="32" height="7" rx="3.5" fill="#d9ede0"/>
  <circle cx="110" cy="106" r="24" fill="#ce1126"/>
  <path d="M110 96v12" stroke="#ffffff" stroke-width="5" stroke-linecap="round"/>
  <circle cx="110" cy="116" r="2.6" fill="#ffffff"/>
  <path d="M40 34l6 6-6 6-6-6z" fill="#1a6b3c"/>
</svg>
